<svg width="27" height="23" viewBox="0 0 27 23" fill="none" xmlns="http://www.w3.org/2000/svg">
<path d="M12.4099 11.3697C12.0251 10.5323 11.8125 9.57652 11.8125 8.51852C11.8125 7.46052 12.0251 6.39826 12.4099 5.40159C12.7938 4.40407 13.3498 3.4713 14.0375 2.67141C14.7243 1.87237 15.5427 1.20367 16.4506 0.736852C17.3593 0.267481 18.3583 0 19.4062 0C20.4542 0 21.4532 0.214667 22.3619 0.602259C23.2706 0.990704 24.0882 1.55207 24.775 2.24548C25.461 2.93889 26.0187 3.76519 26.4026 4.68263C26.7882 5.59922 27 6.60867 27 7.66667C27 8.72467 26.7874 9.73411 26.4026 10.6507C26.0187 11.5681 25.4627 12.3944 24.775 13.0879C24.0891 13.7813 14.4087 22.6116 13.5 23C12.5913 22.6116 2.91094 13.7813 2.22412 13.0879C1.53731 12.3944 0.981281 11.5681 0.596531 10.6507C0.212625 9.73411 0 8.72467 0 7.66667C0 6.60867 0.212625 5.59922 0.596531 4.68263C0.981281 3.76519 1.53647 2.93889 2.22412 2.24548C2.91094 1.55207 3.72938 0.990704 4.63809 0.602259C5.54597 0.214667 6.54497 0 7.59375 0C8.64253 0 9.64153 0.267481 10.5494 0.735148C11.4581 1.20367 12.2757 1.87152 12.9634 2.67056C13.6502 3.47044 14.2062 4.40322 14.591 5.40074C14.9749 6.39826 15.1875 7.46052 15.1875 8.51852C15.1875 9.57652 14.9749 10.5323 14.591 11.3697C14.2062 12.207 13.6519 12.9269 12.9634 13.5146" fill="#FF2525"/>
</svg>
